<?xml version="1.0" encoding="UTF-8"?>
<svg width="242px" height="100px" viewBox="0 0 242 100" version="1.1" xmlns="http://www.w3.org/2000/svg" xmlns:xlink="http://www.w3.org/1999/xlink" style="background: #000000;">
    <!-- Generator: Sketch 43.2 (39069) - http://www.bohemiancoding.com/sketch -->
    <title>Artboard</title>
    <desc>Created with Sketch.</desc>
    <defs></defs>
    <g id="Page-1" stroke="none" stroke-width="1" fill="none" fill-rule="evenodd" stroke-linecap="square">
        <g id="Artboard" stroke="#FFFFFF">
            <g id="Group" transform="translate(26.000000, 23.000000)">
                <path d="M39.8660436,0.367858276 L39.6853015,0.236394788 L39.5973338,0.355372574 L0.326305799,53.4701267 L0.238338151,53.5891045 L0.478249918,53.7636052 L0.566217566,53.6446274 L39.8372456,0.529873327 L39.8660436,0.490923513 L39.8948416,0.529873327 L79.1658697,53.6446274 L79.2538373,53.7636052 L79.4937491,53.5891045 L79.4057814,53.4701267 L40.1347534,0.355372574 L40.0467857,0.236394788 L39.8660436,0.367858276 Z" id="Combined-Shape"></path>
                <path d="M151.286479,53.6515204 L151.256522,53.6119341 L119.213745,11.2689693 L119.127066,11.1544276 L118.913531,11.3404082 L119.00021,11.4549499 L151.042987,53.7979147 L151.129666,53.9124564 L151.282384,53.7794452 L151.463452,53.9111462 L151.55142,53.7921684 L190.822448,0.677414311 L190.910416,0.558436525 L190.670504,0.383935772 L190.582536,0.502913558 L151.311508,53.6176677 L151.286479,53.6515204 Z M79.5545353,0.502913558 L118.825563,53.6176677 L118.913531,53.7366454 L118.673619,53.9111462 L118.585652,53.7921684 L79.3146236,0.677414311 L79.2266559,0.558436525 L79.4665677,0.383935772 L79.5545353,0.502913558 Z" id="Combined-Shape"></path>
            </g>
        </g>
    </g>
</svg>